<svg xmlns="http://www.w3.org/2000/svg" version="1.1" xmlns:xlink="http://www.w3.org/1999/xlink" xmlns:svgjs="http://svgjs.dev/svgjs" width="1500" height="1500" viewBox="0 0 1500 1500"><rect width="1500" height="1500" fill="#ffffff"></rect><g transform="matrix(0.6666666666666666,0,0,0.6666666666666666,249.39393939393938,628.6506597210107)"><svg viewBox="0 0 396 96" data-background-color="#ffffff" preserveAspectRatio="xMidYMid meet" height="363" width="1500" xmlns="http://www.w3.org/2000/svg" xmlns:xlink="http://www.w3.org/1999/xlink"><g id="tight-bounds" transform="matrix(1,0,0,1,0.2400000000000091,0.1385812676982141)"><svg viewBox="0 0 395.52 95.7228374646036" height="95.7228374646036" width="395.52"><g><svg viewBox="0 0 541.5120859340435 131.05550512485564" height="95.7228374646036" width="395.52"><g transform="matrix(1,0,0,1,0,18.112591518702914)"><svg viewBox="0 0 395.52 94.83032208744982" height="94.83032208744982" width="395.52"><g id="textblocktransform"><svg viewBox="0 0 395.52 94.83032208744982" height="94.83032208744982" width="395.52" id="textblock"><g><svg viewBox="0 0 395.52 63.270221493027066" height="63.270221493027066" width="395.52"><g transform="matrix(1,0,0,1,0,0)"><svg width="395.52" viewBox="1.5 -37.2 304.72 48.75" height="63.270221493027066" data-palette-color="#97978d"><path d="M38.6-2.9L43.55-2.35 43.5 0 30.1 0 29.8-1.6 34.1-3.15 33.8-21 34.5-29.25 24.25-0.8 19.9 0.35 9.35-28.85 10.3-21 9.85-2.85 14.05-2.35 14 0 1.8 0 1.5-1.6Q2.95-2.3 5.95-3.2L5.95-3.2 6.9-29.7 2.95-30.15 3-32.5 13.05-32.5 22.8-5.4 32.4-32.5 41.55-32.5 41.85-30.9Q40.6-30.3 38.15-29.55L38.15-29.55 38.6-2.9ZM50.85-28.65L50.85-28.65Q48.4-29.7 47-31.65L47-31.65Q48.3-34.35 50.05-35.45L50.05-35.45Q52.3-34.55 53.8-32.45L53.8-32.45Q53-30.15 50.85-28.65ZM52.85-22.45L52.85-3.2Q55.35-2.9 56.45-2.4L56.45-2.4 56.15 0 44.85 0 44.6-1.65Q45.8-2.25 48.4-3.05L48.4-3.05 48.4-20.6 44.65-20.3 44.05-22.65Q47.4-24.1 50.85-24.2L50.85-24.2 52.85-22.45ZM77.15-2L70.35 0.75Q64.95 0.8 61.7-2.63 58.45-6.05 58.45-11.7L58.45-11.7Q58.45-17.25 61.67-20.83 64.9-24.4 69.85-24.4L69.85-24.4Q74.05-24.4 77.45-21.1L77.45-21.1 74.8-17.55Q70.4-20.95 66.2-21.25L66.2-21.25Q63.1-17.65 63.1-12.7L63.1-12.7Q63.1-8.4 65.22-5.68 67.35-2.95 71.1-2.95L71.1-2.95Q73.7-2.95 76.3-4.1L76.3-4.1 77.15-2ZM102.99-15.35L102.99-3.2Q105.49-2.9 106.59-2.4L106.59-2.4 106.29 0 95.94 0 95.69-1.65 98.54-2.75 98.54-14.8Q98.54-20.2 95.34-20.2L95.34-20.2Q92.54-20.2 87.74-16.6L87.74-16.6 87.74-3.15Q89.84-2.9 90.99-2.4L90.99-2.4 90.69 0 79.84 0 79.59-1.65 83.29-3 83.29-33.15 79.54-32.85 78.94-35.2Q82.29-36.65 85.74-36.75L85.74-36.75 87.74-35 87.74-19.3Q95.09-24.2 97.74-24.2L97.74-24.2Q99.19-23.95 100.67-22.73 102.14-21.5 102.57-20.2 102.99-18.9 102.99-15.35L102.99-15.35ZM130.69-3.75L131.44-1.55 126.39 0.75Q125.64 0.65 124.49-0.43 123.34-1.5 122.84-2.7L122.84-2.7 117.19 0.7 115.99 0.75Q112.99 0.75 111.17-0.95 109.34-2.65 109.34-5.2L109.34-5.2Q109.34-8.6 112.84-10.55L112.84-10.55 122.59-10.8 122.59-15.95Q122.59-18.25 122.04-19.43 121.49-20.6 120.14-21.3L120.14-21.3Q117.09-21.2 114.49-20.45L114.49-20.45 114.09-15.25 111.44-15.05Q110.14-17.4 109.99-21.05L109.99-21.05Q112.19-22.3 115.89-23.48 119.59-24.65 121.14-24.65L121.14-24.65Q122.54-24.65 124.04-23.63 125.54-22.6 126.29-21.48 127.04-20.35 127.09-17.4L127.09-17.4 127.09-4.3Q127.09-3.3 128.39-3.3L128.39-3.3Q129.14-3.3 130.69-3.75L130.69-3.75ZM115.34-2.9L115.34-2.9Q118.29-2.8 122.59-4.75L122.59-4.75 122.59-8.2 120.09-8.35Q114.04-8.35 114.04-5.2L114.04-5.2Q114.04-3.7 115.34-2.9ZM150.74-12.85L137.89-13.1Q137.89-8.15 140.16-5.6 142.44-3.05 146.09-3.05L146.09-3.05Q148.79-3.05 152.49-4.7L152.49-4.7 153.24-2.55 145.44 0.75Q139.94 0.75 136.56-2.63 133.19-6 133.19-11.3L133.19-11.3Q133.19-16.7 136.51-20.55 139.84-24.4 144.64-24.4L144.64-24.4Q147.24-24.4 149.31-23.25 151.39-22.1 152.51-20.1 153.64-18.1 153.59-15.65L153.59-15.65 150.74-12.85ZM142.14-21.35L142.14-21.35Q139.29-19.85 138.29-15.75L138.29-15.75 149.24-16.25Q148.74-18.65 146.76-20.1 144.79-21.55 142.14-21.35ZM164.29-35L164.29-3.2Q166.79-2.9 167.89-2.4L167.89-2.4 167.59 0 156.29 0 156.04-1.65Q157.24-2.25 159.84-3.05L159.84-3.05 159.84-33.15 156.09-32.85 155.49-35.2Q158.84-36.65 162.29-36.75L162.29-36.75 164.29-35ZM171.83-25.2L168.58-26.25Q170.38-31.15 170.63-36.2L170.63-36.2 171.98-37.2 175.58-36.4Q174.93-30.7 171.83-25.2L171.83-25.2ZM184.23-18.5L184.23-18.5Q184.23-16.9 185.53-15.95 186.83-15 189.53-13.8L189.53-13.8 192.48-12.45Q196.78-10.2 196.78-6.25L196.78-6.25Q196.78-3.05 194.38-1.03 191.98 1 188.18 1L188.18 1Q184.03 1 179.33-1.6L179.33-1.6 181.18-6Q185.88-2.8 191.08-2.1L191.08-2.1Q192.43-3.3 192.43-5 192.43-6.7 191.18-7.75 189.93-8.8 186.26-10.43 182.58-12.05 181.31-13.58 180.03-15.1 180.03-17.25L180.03-17.25Q180.03-20.4 182.71-22.4 185.38-24.4 189.53-24.4L189.53-24.4Q193.03-24.4 195.93-22.9L195.93-22.9Q196.08-19.25 195.08-16.45L195.08-16.45 192.38-16.45 192.03-20.3Q189.53-21.4 186.78-21.4L186.78-21.4 185.83-21.35Q184.23-20.35 184.23-18.5ZM232.58-17.35L232.58-17.35Q236.78-16.85 239.13-14.48 241.48-12.1 241.48-8.95L241.48-8.95Q241.48-5.1 238.05-2.63 234.63-0.15 228.98 0L228.98 0 214.08 0 213.78-1.6 218.03-3.15 218.03-29.9 214.48-30.1 214.53-32.5Q222.83-32.9 227.58-32.9L227.58-32.9Q233.18-32.9 236.45-30.68 239.73-28.45 239.73-24.6L239.73-24.6Q239.73-21.85 237.93-19.8 236.13-17.75 232.58-17.35ZM229.53-29.95L222.68-29.2 222.68-18.4 225.18-18.4Q229.98-18.4 232.28-20.1 234.58-21.8 234.58-24.25L234.58-24.25Q234.58-26.25 233.15-27.93 231.73-29.6 229.53-29.95L229.53-29.95ZM222.68-3.45L227.68-3.05 228.78-3Q232.28-3 234.18-4.7 236.08-6.4 236.08-8.85L236.08-8.85Q236.08-11.6 233.78-13.6 231.48-15.6 227.98-15.7L227.98-15.7 222.68-15.7 222.68-3.45ZM251.27-35L251.27-3.2Q253.77-2.9 254.87-2.4L254.87-2.4 254.57 0 243.27 0 243.02-1.65Q244.22-2.25 246.82-3.05L246.82-3.05 246.82-33.15 243.07-32.85 242.47-35.2Q245.82-36.65 249.27-36.75L249.27-36.75 251.27-35ZM256.87-11.8Q256.87-17.4 260.05-20.9 263.22-24.4 268.17-24.4L268.17-24.4Q273.07-24.4 276.12-20.8 279.17-17.2 279.17-11.5L279.17-11.5Q279.17-5.85 276.17-2.43 273.17 1 268.27 1L268.27 1Q263.32 1 260.1-2.6 256.87-6.2 256.87-11.8ZM271.22-2.6L271.22-2.6Q274.47-4.75 274.47-10.95L274.47-10.95Q274.47-15.4 272.82-18.35 271.17-21.3 267.77-21.3L267.77-21.3Q265.52-21.3 263.97-20.2L263.97-20.2Q261.62-17.4 261.62-12.35L261.62-12.35Q261.62-8.05 263.44-5.15 265.27-2.25 268.82-2.25L268.82-2.25Q269.97-2.25 271.22-2.6ZM287.42-4.8L287.42-4.8Q291.07-4.75 296.29-3.73 301.52-2.7 304.82-1.4L304.82-1.4 305.07 0.75Q305.07 5.3 300.87 8.43 296.67 11.55 290.92 11.55L290.92 11.55Q287.02 11.55 284.29 9.85 281.57 8.15 281.57 5.2L281.57 5.2 281.62 4.45 287.57-1.05 283.62-1.25 282.72-3.6Q285.17-6.5 288.02-8.55L288.02-8.55Q282.27-10.75 282.27-16.25L282.27-16.25Q282.27-19.95 285.27-22.38 288.27-24.8 292.67-24.8L292.67-24.8Q296.57-24.8 299.32-22.85L299.32-22.85Q301.12-26.25 305.27-27.1L305.27-27.1 306.22-21.9Q303.62-21.9 301.47-20.9L301.47-20.9Q303.02-18.8 303.02-16.15L303.02-16.15Q303.02-12.4 299.99-10.05 296.97-7.7 292.67-7.7L292.67-7.7 290.82-7.85Q288.62-6.15 287.42-4.8ZM288.52-21.15L288.52-21.15Q286.87-19.2 286.87-16.55L286.87-16.55Q286.87-13.75 288.42-12 289.97-10.25 292.67-10.25L292.67-10.25Q294.22-10.25 296.02-10.9L296.02-10.9Q298.42-12.85 298.42-15.8L298.42-15.8Q298.42-18.4 296.62-20.25 294.82-22.1 292.22-22.1L292.22-22.1Q290.42-22.1 288.52-21.15ZM291.22 7.5L291.22 7.5Q294.52 7.5 297.64 6.13 300.77 4.75 302.12 2.25L302.12 2.25Q298.92 0.35 290.57-0.75L290.57-0.75Q285.67 2.6 285.67 4.75L285.67 4.75Q285.67 6 287.22 6.75 288.77 7.5 291.22 7.5Z" opacity="1" transform="matrix(1,0,0,1,0,0)" fill="#000000" class="wordmark-text-0" data-fill-palette-color="primary" id="text-0"></path></svg></g></svg></g><g transform="matrix(1,0,0,1,163.310208,78.20680230221492)"><svg viewBox="0 0 232.209792 16.6235197852349" height="16.6235197852349" width="232.209792"><g transform="matrix(1,0,0,1,0,0)"><svg width="232.209792" viewBox="4.91 -37.99 698.36 50" height="16.6235197852349" data-palette-color="#97978d"><path d="M24.8 0L4.91 0 4.91-35.69 9.06-35.69 9.06-3.76 24.8-3.76 24.8 0ZM41.55 0.49L41.55 0.49Q35.62 0.49 32.19-3.13 28.76-6.74 28.76-13.16L28.76-13.16Q28.76-19.63 31.94-23.44 35.13-27.25 40.5-27.25L40.5-27.25Q45.53-27.25 48.46-23.94 51.39-20.63 51.39-15.21L51.39-15.21 51.39-12.65 32.96-12.65Q33.08-7.93 35.34-5.49 37.6-3.05 41.7-3.05L41.7-3.05Q46.02-3.05 50.24-4.86L50.24-4.86 50.24-1.25Q48.09-0.32 46.18 0.09 44.26 0.49 41.55 0.49ZM40.45-23.85L40.45-23.85Q37.23-23.85 35.31-21.75 33.4-19.65 33.05-15.94L33.05-15.94 47.04-15.94Q47.04-19.78 45.33-21.81 43.63-23.85 40.45-23.85ZM77.75 0L74.75 0 73.95-3.81 73.75-3.81Q71.75-1.29 69.76-0.4 67.77 0.49 64.79 0.49L64.79 0.49Q60.81 0.49 58.55-1.56 56.29-3.61 56.29-7.4L56.29-7.4Q56.29-15.5 69.26-15.89L69.26-15.89 73.8-16.04 73.8-17.7Q73.8-20.85 72.44-22.35 71.09-23.85 68.11-23.85L68.11-23.85Q64.77-23.85 60.54-21.8L60.54-21.8 59.3-24.9Q61.27-25.98 63.63-26.59 65.99-27.2 68.35-27.2L68.35-27.2Q73.14-27.2 75.45-25.07 77.75-22.95 77.75-18.26L77.75-18.26 77.75 0ZM65.6-2.86L65.6-2.86Q69.38-2.86 71.54-4.93 73.7-7.01 73.7-10.74L73.7-10.74 73.7-13.16 69.65-12.99Q64.81-12.82 62.68-11.49 60.54-10.16 60.54-7.35L60.54-7.35Q60.54-5.15 61.87-4 63.2-2.86 65.6-2.86ZM98.31-27.25L98.31-27.25Q100.09-27.25 101.51-26.95L101.51-26.95 100.94-23.19Q99.28-23.56 98.01-23.56L98.01-23.56Q94.77-23.56 92.46-20.92 90.15-18.29 90.15-14.36L90.15-14.36 90.15 0 86.1 0 86.1-26.76 89.45-26.76 89.91-21.8 90.1-21.8Q91.59-24.41 93.69-25.83 95.79-27.25 98.31-27.25ZM128.87 0L124.82 0 124.82-17.31Q124.82-20.58 123.33-22.19 121.84-23.8 118.67-23.8L118.67-23.8Q114.47-23.8 112.51-21.53 110.56-19.26 110.56-14.04L110.56-14.04 110.56 0 106.51 0 106.51-26.76 109.8-26.76 110.46-23.1 110.66-23.1Q111.9-25.07 114.15-26.16 116.4-27.25 119.16-27.25L119.16-27.25Q123.99-27.25 126.43-24.91 128.87-22.58 128.87-17.46L128.87-17.46 128.87 0ZM141.25-26.76L141.25 0 137.19 0 137.19-26.76 141.25-26.76ZM136.85-34.01L136.85-34.01Q136.85-35.4 137.54-36.05 138.22-36.69 139.25-36.69L139.25-36.69Q140.22-36.69 140.93-36.04 141.64-35.38 141.64-34.01L141.64-34.01Q141.64-32.64 140.93-31.97 140.22-31.3 139.25-31.3L139.25-31.3Q138.22-31.3 137.54-31.97 136.85-32.64 136.85-34.01ZM172.2 0L168.15 0 168.15-17.31Q168.15-20.58 166.66-22.19 165.17-23.8 162-23.8L162-23.8Q157.8-23.8 155.84-21.53 153.89-19.26 153.89-14.04L153.89-14.04 153.89 0 149.84 0 149.84-26.76 153.13-26.76 153.79-23.1 153.99-23.1Q155.23-25.07 157.48-26.16 159.73-27.25 162.49-27.25L162.49-27.25Q167.32-27.25 169.76-24.91 172.2-22.58 172.2-17.46L172.2-17.46 172.2 0ZM193.17-26.76L202.42-26.76 202.42-24.19 197.47-23.61Q198.15-22.75 198.69-21.37 199.23-20 199.23-18.26L199.23-18.26Q199.23-14.33 196.54-11.99 193.85-9.64 189.17-9.64L189.17-9.64Q187.97-9.64 186.92-9.84L186.92-9.84Q184.33-8.47 184.33-6.4L184.33-6.4Q184.33-5.3 185.24-4.77 186.14-4.25 188.34-4.25L188.34-4.25 193.07-4.25Q197.42-4.25 199.75-2.42 202.08-0.59 202.08 2.91L202.08 2.91Q202.08 7.35 198.52 9.68 194.95 12.01 188.12 12.01L188.12 12.01Q182.87 12.01 180.02 10.06 177.18 8.11 177.18 4.54L177.18 4.54Q177.18 2.1 178.74 0.32 180.3-1.46 183.14-2.1L183.14-2.1Q182.11-2.56 181.42-3.54 180.72-4.52 180.72-5.81L180.72-5.81Q180.72-7.28 181.5-8.37 182.28-9.47 183.97-10.5L183.97-10.5Q181.89-11.35 180.59-13.4 179.28-15.45 179.28-18.09L179.28-18.09Q179.28-22.49 181.92-24.87 184.55-27.25 189.39-27.25L189.39-27.25Q191.49-27.25 193.17-26.76L193.17-26.76ZM181.09 4.49L181.09 4.49Q181.09 6.67 182.92 7.79 184.75 8.91 188.17 8.91L188.17 8.91Q193.27 8.91 195.72 7.39 198.18 5.86 198.18 3.25L198.18 3.25Q198.18 1.07 196.83 0.23 195.49-0.61 191.78-0.61L191.78-0.61 186.92-0.61Q184.16-0.61 182.62 0.71 181.09 2.03 181.09 4.49ZM183.28-18.19L183.28-18.19Q183.28-15.38 184.87-13.94 186.46-12.5 189.29-12.5L189.29-12.5Q195.22-12.5 195.22-18.26L195.22-18.26Q195.22-24.29 189.22-24.29L189.22-24.29Q186.36-24.29 184.82-22.75 183.28-21.22 183.28-18.19ZM247.56 0L242.75 0 237.84-15.7Q237.38-17.14 236.11-22.24L236.11-22.24 235.92-22.24Q234.94-17.97 234.21-15.65L234.21-15.65 229.15 0 224.46 0 217.17-26.76 221.41-26.76Q224-16.67 225.36-11.4 226.71-6.13 226.91-4.3L226.91-4.3 227.1-4.3Q227.37-5.69 227.97-7.9 228.57-10.11 229.01-11.4L229.01-11.4 233.91-26.76 238.31-26.76 243.09-11.4Q244.46-7.2 244.95-4.35L244.95-4.35 245.14-4.35Q245.24-5.22 245.67-7.06 246.1-8.89 250.76-26.76L250.76-26.76 254.96-26.76 247.56 0ZM271.09 0.49L271.09 0.49Q265.16 0.49 261.73-3.13 258.3-6.74 258.3-13.16L258.3-13.16Q258.3-19.63 261.49-23.44 264.67-27.25 270.04-27.25L270.04-27.25Q275.07-27.25 278-23.94 280.93-20.63 280.93-15.21L280.93-15.21 280.93-12.65 262.5-12.65Q262.62-7.93 264.88-5.49 267.14-3.05 271.24-3.05L271.24-3.05Q275.56-3.05 279.78-4.86L279.78-4.86 279.78-1.25Q277.64-0.32 275.72 0.09 273.8 0.49 271.09 0.49ZM269.99-23.85L269.99-23.85Q266.77-23.85 264.86-21.75 262.94-19.65 262.6-15.94L262.6-15.94 276.59-15.94Q276.59-19.78 274.88-21.81 273.17-23.85 269.99-23.85ZM300.29-27.2L300.29-27.2Q305.56-27.2 308.48-23.6 311.4-20 311.4-13.4L311.4-13.4Q311.4-6.81 308.46-3.16 305.51 0.49 300.29 0.49L300.29 0.49Q297.68 0.49 295.52-0.48 293.36-1.44 291.89-3.44L291.89-3.44 291.6-3.44 290.74 0 287.84 0 287.84-37.99 291.89-37.99 291.89-28.76Q291.89-25.66 291.7-23.19L291.7-23.19 291.89-23.19Q294.72-27.2 300.29-27.2ZM299.7-23.8L299.7-23.8Q295.55-23.8 293.72-21.42 291.89-19.04 291.89-13.4L291.89-13.4Q291.89-7.76 293.77-5.33 295.65-2.91 299.8-2.91L299.8-2.91Q303.54-2.91 305.37-5.63 307.2-8.35 307.2-13.45L307.2-13.45Q307.2-18.68 305.37-21.24 303.54-23.8 299.7-23.8ZM350.21 0L349.67-3.59 349.45-3.59Q346.65 0.49 341.06 0.49L341.06 0.49Q335.81 0.49 332.89-3.1 329.97-6.69 329.97-13.31L329.97-13.31Q329.97-19.92 332.9-23.58 335.83-27.25 341.06-27.25L341.06-27.25Q346.5-27.25 349.41-23.29L349.41-23.29 349.72-23.29 349.55-25.22 349.45-27.1 349.45-37.99 353.51-37.99 353.51 0 350.21 0ZM341.57-2.91L341.57-2.91Q345.72-2.91 347.59-5.16 349.45-7.42 349.45-12.45L349.45-12.45 349.45-13.31Q349.45-18.99 347.56-21.42 345.67-23.85 341.52-23.85L341.52-23.85Q337.96-23.85 336.06-21.08 334.17-18.31 334.17-13.26L334.17-13.26Q334.17-8.13 336.05-5.52 337.93-2.91 341.57-2.91ZM373.4 0.49L373.4 0.49Q367.47 0.49 364.04-3.13 360.61-6.74 360.61-13.16L360.61-13.16Q360.61-19.63 363.8-23.44 366.98-27.25 372.35-27.25L372.35-27.25Q377.38-27.25 380.31-23.94 383.24-20.63 383.24-15.21L383.24-15.21 383.24-12.65 364.81-12.65Q364.93-7.93 367.19-5.49 369.45-3.05 373.55-3.05L373.55-3.05Q377.87-3.05 382.09-4.86L382.09-4.86 382.09-1.25Q379.95-0.32 378.03 0.09 376.11 0.49 373.4 0.49ZM372.3-23.85L372.3-23.85Q369.08-23.85 367.16-21.75 365.25-19.65 364.91-15.94L364.91-15.94 378.9-15.94Q378.9-19.78 377.19-21.81 375.48-23.85 372.3-23.85ZM400.74 0L396.01 0 385.85-26.76 390.2-26.76 395.96-10.89Q397.91-5.32 398.25-3.66L398.25-3.66 398.45-3.66Q398.72-4.96 400.15-9.02 401.57-13.09 406.55-26.76L406.55-26.76 410.9-26.76 400.74 0ZM445.44-7.3L445.44-7.3Q445.44-3.56 442.66-1.54 439.87 0.49 434.85 0.49L434.85 0.49Q429.52 0.49 426.54-1.2L426.54-1.2 426.54-4.96Q428.47-3.98 430.68-3.42 432.89-2.86 434.94-2.86L434.94-2.86Q438.12-2.86 439.83-3.87 441.53-4.88 441.53-6.96L441.53-6.96Q441.53-8.52 440.18-9.63 438.82-10.74 434.89-12.26L434.89-12.26Q431.16-13.65 429.58-14.69 428.01-15.72 427.24-17.04 426.47-18.36 426.47-20.19L426.47-20.19Q426.47-23.46 429.13-25.35 431.79-27.25 436.43-27.25L436.43-27.25Q440.75-27.25 444.88-25.49L444.88-25.49 443.44-22.19Q439.41-23.85 436.14-23.85L436.14-23.85Q433.26-23.85 431.79-22.95 430.33-22.05 430.33-20.46L430.33-20.46Q430.33-19.38 430.88-18.63 431.43-17.87 432.65-17.19 433.87-16.5 437.34-15.21L437.34-15.21Q442.1-13.48 443.77-11.72 445.44-9.96 445.44-7.3ZM460.67-2.86L460.67-2.86Q461.75-2.86 462.75-3.02 463.75-3.17 464.33-3.34L464.33-3.34 464.33-0.24Q463.68 0.07 462.39 0.28 461.11 0.49 460.09 0.49L460.09 0.49Q452.32 0.49 452.32-7.69L452.32-7.69 452.32-23.61 448.49-23.61 448.49-25.56 452.32-27.25 454.03-32.96 456.38-32.96 456.38-26.76 464.14-26.76 464.14-23.61 456.38-23.61 456.38-7.86Q456.38-5.44 457.52-4.15 458.67-2.86 460.67-2.86ZM480.98 0.49L480.98 0.49Q475.05 0.49 471.62-3.13 468.19-6.74 468.19-13.16L468.19-13.16Q468.19-19.63 471.38-23.44 474.56-27.25 479.93-27.25L479.93-27.25Q484.96-27.25 487.89-23.94 490.82-20.63 490.82-15.21L490.82-15.21 490.82-12.65 472.39-12.65Q472.51-7.93 474.77-5.49 477.03-3.05 481.13-3.05L481.13-3.05Q485.45-3.05 489.67-4.86L489.67-4.86 489.67-1.25Q487.53-0.32 485.61 0.09 483.69 0.49 480.98 0.49ZM479.88-23.85L479.88-23.85Q476.66-23.85 474.74-21.75 472.83-19.65 472.49-15.94L472.49-15.94 486.48-15.94Q486.48-19.78 484.77-21.81 483.06-23.85 479.88-23.85ZM510.18 0.49L510.18 0.49Q507.57 0.49 505.41-0.48 503.25-1.44 501.78-3.44L501.78-3.44 501.49-3.44Q501.78-1.1 501.78 1L501.78 1 501.78 12.01 497.73 12.01 497.73-26.76 501.02-26.76 501.59-23.1 501.78-23.1Q503.34-25.29 505.42-26.27 507.49-27.25 510.18-27.25L510.18-27.25Q515.5-27.25 518.39-23.61 521.29-19.97 521.29-13.4L521.29-13.4Q521.29-6.81 518.35-3.16 515.4 0.49 510.18 0.49ZM509.59-23.8L509.59-23.8Q505.49-23.8 503.66-21.53 501.83-19.26 501.78-14.31L501.78-14.31 501.78-13.4Q501.78-7.76 503.66-5.33 505.54-2.91 509.69-2.91L509.69-2.91Q513.16-2.91 515.12-5.71 517.09-8.52 517.09-13.45L517.09-13.45Q517.09-18.46 515.12-21.13 513.16-23.8 509.59-23.8ZM553.8-27.2L553.8-27.2Q559.08-27.2 561.99-23.6 564.91-20 564.91-13.4L564.91-13.4Q564.91-6.81 561.97-3.16 559.03 0.49 553.8 0.49L553.8 0.49Q551.19 0.49 549.03-0.48 546.87-1.44 545.4-3.44L545.4-3.44 545.11-3.44 544.26 0 541.35 0 541.35-37.99 545.4-37.99 545.4-28.76Q545.4-25.66 545.21-23.19L545.21-23.19 545.4-23.19Q548.24-27.2 553.8-27.2ZM553.22-23.8L553.22-23.8Q549.07-23.8 547.24-21.42 545.4-19.04 545.4-13.4L545.4-13.4Q545.4-7.76 547.28-5.33 549.16-2.91 553.31-2.91L553.31-2.91Q557.05-2.91 558.88-5.63 560.71-8.35 560.71-13.45L560.71-13.45Q560.71-18.68 558.88-21.24 557.05-23.8 553.22-23.8ZM578.53 0.15L567.74-26.76 572.09-26.76 577.95-11.5Q579.87-6.27 580.34-3.96L580.34-3.96 580.53-3.96Q580.85-5.2 581.86-8.22 582.88-11.23 588.49-26.76L588.49-26.76 592.84-26.76 581.34 3.71Q579.63 8.23 577.35 10.12 575.06 12.01 571.74 12.01L571.74 12.01Q569.89 12.01 568.08 11.6L568.08 11.6 568.08 8.35Q569.42 8.64 571.09 8.64L571.09 8.64Q575.26 8.64 577.04 3.96L577.04 3.96 578.53 0.15ZM627.43-7.3L627.43-7.3Q627.43-3.56 624.64-1.54 621.86 0.49 616.83 0.49L616.83 0.49Q611.51 0.49 608.53-1.2L608.53-1.2 608.53-4.96Q610.46-3.98 612.67-3.42 614.88-2.86 616.93-2.86L616.93-2.86Q620.1-2.86 621.81-3.87 623.52-4.88 623.52-6.96L623.52-6.96Q623.52-8.52 622.17-9.63 620.81-10.74 616.88-12.26L616.88-12.26Q613.15-13.65 611.57-14.69 610-15.72 609.23-17.04 608.46-18.36 608.46-20.19L608.46-20.19Q608.46-23.46 611.12-25.35 613.78-27.25 618.42-27.25L618.42-27.25Q622.74-27.25 626.87-25.49L626.87-25.49 625.43-22.19Q621.4-23.85 618.13-23.85L618.13-23.85Q615.25-23.85 613.78-22.95 612.32-22.05 612.32-20.46L612.32-20.46Q612.32-19.38 612.86-18.63 613.41-17.87 614.63-17.19 615.86-16.5 619.32-15.21L619.32-15.21Q624.08-13.48 625.76-11.72 627.43-9.96 627.43-7.3ZM642.66-2.86L642.66-2.86Q643.73-2.86 644.73-3.02 645.74-3.17 646.32-3.34L646.32-3.34 646.32-0.24Q645.66 0.07 644.38 0.28 643.1 0.49 642.07 0.49L642.07 0.49Q634.31 0.49 634.31-7.69L634.31-7.69 634.31-23.61 630.48-23.61 630.48-25.56 634.31-27.25 636.02-32.96 638.36-32.96 638.36-26.76 646.13-26.76 646.13-23.61 638.36-23.61 638.36-7.86Q638.36-5.44 639.51-4.15 640.66-2.86 642.66-2.86ZM662.97 0.49L662.97 0.49Q657.04 0.49 653.61-3.13 650.18-6.74 650.18-13.16L650.18-13.16Q650.18-19.63 653.36-23.44 656.55-27.25 661.92-27.25L661.92-27.25Q666.95-27.25 669.88-23.94 672.81-20.63 672.81-15.21L672.81-15.21 672.81-12.65 654.38-12.65Q654.5-7.93 656.76-5.49 659.01-3.05 663.12-3.05L663.12-3.05Q667.44-3.05 671.66-4.86L671.66-4.86 671.66-1.25Q669.51-0.32 667.6 0.09 665.68 0.49 662.97 0.49ZM661.87-23.85L661.87-23.85Q658.65-23.85 656.73-21.75 654.82-19.65 654.47-15.94L654.47-15.94 668.46-15.94Q668.46-19.78 666.75-21.81 665.04-23.85 661.87-23.85ZM692.17 0.49L692.17 0.49Q689.55 0.49 687.39-0.48 685.23-1.44 683.77-3.44L683.77-3.44 683.47-3.44Q683.77-1.1 683.77 1L683.77 1 683.77 12.01 679.72 12.01 679.72-26.76 683.01-26.76 683.57-23.1 683.77-23.1Q685.33-25.29 687.41-26.27 689.48-27.25 692.17-27.25L692.17-27.25Q697.49-27.25 700.38-23.61 703.27-19.97 703.27-13.4L703.27-13.4Q703.27-6.81 700.33-3.16 697.39 0.49 692.17 0.49ZM691.58-23.8L691.58-23.8Q687.48-23.8 685.65-21.53 683.82-19.26 683.77-14.31L683.77-14.31 683.77-13.4Q683.77-7.76 685.65-5.33 687.53-2.91 691.68-2.91L691.68-2.91Q695.14-2.91 697.11-5.71 699.08-8.52 699.08-13.45L699.08-13.45Q699.08-18.46 697.11-21.13 695.14-23.8 691.58-23.8Z" opacity="1" transform="matrix(1,0,0,1,0,0)" fill="#000000" class="slogan-text-1" data-fill-palette-color="secondary" id="text-1"></path></svg></g></svg></g></svg></g></svg></g><g transform="matrix(1,0,0,1,410.4565808091878,0)"><svg viewBox="0 0 131.05550512485564 131.05550512485564" height="131.05550512485564" width="131.05550512485564"><g data-palette-color="#97978d"><rect width="35.82183806746054" height="131.05550512485564" fill="#000000" stroke="transparent" data-fill-palette-color="accent" x="0" fill-opacity="1"></rect><rect width="35.82183806746054" height="131.05550512485564" fill="#000000" stroke="transparent" data-fill-palette-color="accent" x="43.68516837495188" fill-opacity="0.75"></rect><rect width="35.82183806746054" height="131.05550512485564" fill="#000000" stroke="transparent" data-fill-palette-color="accent" x="87.37033674990376" fill-opacity="0.5"></rect></g></svg></g></svg></g><defs></defs></svg><rect width="395.52" height="95.7228374646036" fill="none" stroke="none" visibility="hidden"></rect></g></svg></g></svg>